<svg width="142" height="102" viewBox="0 0 142 102" fill="none" xmlns="http://www.w3.org/2000/svg">
<g filter="url(#filter0_d_10_3)">
<path d="M135.336 8.19668C136.135 8.41529 136.96 7.94475 137.179 7.14568C137.397 6.34662 136.927 5.52163 136.128 5.30302L135.732 6.74985L135.336 8.19668ZM10.4014 96.4421C10.7838 97.177 11.6895 97.4627 12.4244 97.0803L24.4001 90.8487C25.1349 90.4663 25.4207 89.5605 25.0383 88.8256C24.6559 88.0907 23.7501 87.805 23.0152 88.1874L12.3702 93.7267L6.83096 83.0816C6.44855 82.3468 5.54281 82.061 4.80792 82.4434C4.07303 82.8258 3.78729 83.7316 4.1697 84.4665L10.4014 96.4421ZM49.232 48.7496L50.6698 48.3222V48.3222L49.232 48.7496ZM135.732 6.74985L136.128 5.30302C122.241 1.50366 110.844 6.42892 101.431 14.6915C92.0753 22.9039 84.5214 34.5418 78.1785 44.503C74.9837 49.5204 72.1105 54.0916 69.4346 57.6915C66.7175 61.3467 64.3909 63.7314 62.3644 64.6539C61.4099 65.0884 60.5951 65.1638 59.8401 64.9565C59.061 64.7426 58.161 64.1764 57.1541 62.9875C55.1028 60.5653 52.9402 55.9589 50.6698 48.3222L49.232 48.7496L47.7942 49.1771C50.0817 56.8714 52.3844 61.9975 54.8647 64.9263C56.1237 66.4128 57.5061 67.4267 59.0458 67.8495C60.6097 68.2789 62.1503 68.0476 63.6074 67.3843C66.4043 66.1111 69.1263 63.135 71.8423 59.4812C74.5994 55.7721 77.5434 51.0859 80.7091 46.1143C87.0873 36.0976 94.4274 24.8311 103.41 16.9461C112.336 9.11118 122.723 4.74601 135.336 8.19668L135.732 6.74985ZM49.232 48.7496L50.6698 48.3222C49.2762 43.6346 47.5397 40.4693 45.3226 38.9173C44.1646 38.1067 42.8944 37.7513 41.5727 37.852C40.2829 37.9502 39.0505 38.4735 37.9033 39.2338C35.6359 40.7366 33.4087 43.3629 31.2871 46.5254C29.1452 49.7184 27.0256 53.5892 25.0092 57.7163C20.9756 65.9726 17.2986 75.3726 14.635 82.6898C13.3017 86.3523 12.2194 89.5013 11.47 91.7356C11.0953 92.8529 10.8037 93.7418 10.6056 94.3523C10.5065 94.6575 10.4308 94.8931 10.3797 95.0529C10.3541 95.1328 10.3347 95.1937 10.3216 95.2349C10.3151 95.2555 10.3101 95.2711 10.3068 95.2817C10.3051 95.2871 10.3038 95.2911 10.3029 95.2939C10.3025 95.2953 10.3021 95.2964 10.3019 95.2971C10.3016 95.2979 10.3015 95.2984 11.732 95.7497C13.1625 96.201 13.1625 96.2008 13.1627 96.2004C13.1629 96.1998 13.1631 96.199 13.1635 96.1978C13.1642 96.1955 13.1654 96.1919 13.1669 96.1871C13.17 96.1774 13.1746 96.1627 13.1809 96.143C13.1933 96.1038 13.2121 96.0448 13.237 95.9669C13.2869 95.811 13.3613 95.5795 13.459 95.2785C13.6544 94.6765 13.9429 93.7969 14.3143 92.6896C15.0571 90.4747 16.131 87.3502 17.454 83.716C20.1029 76.4394 23.7384 67.1519 27.7048 59.0332C29.6884 54.9729 31.7407 51.2343 33.7784 48.1967C35.8365 45.1288 37.7968 42.9035 39.5607 41.7344C40.4291 41.1588 41.1733 40.8911 41.8005 40.8433C42.3957 40.798 42.983 40.9416 43.6023 41.3751C44.9399 42.3114 46.4378 44.6147 47.7942 49.1771L49.232 48.7496Z" fill="#F1F1F1"/>
</g>
<defs>
<filter id="filter0_d_10_3" x="0" y="0" width="141.232" height="101.25" filterUnits="userSpaceOnUse" color-interpolation-filters="sRGB">
<feFlood flood-opacity="0" result="BackgroundImageFix"/>
<feColorMatrix in="SourceAlpha" type="matrix" values="0 0 0 0 0 0 0 0 0 0 0 0 0 0 0 0 0 0 127 0" result="hardAlpha"/>
<feOffset/>
<feGaussianBlur stdDeviation="2"/>
<feComposite in2="hardAlpha" operator="out"/>
<feColorMatrix type="matrix" values="0 0 0 0 0 0 0 0 0 0 0 0 0 0 0 0 0 0 0.25 0"/>
<feBlend mode="normal" in2="BackgroundImageFix" result="effect1_dropShadow_10_3"/>
<feBlend mode="normal" in="SourceGraphic" in2="effect1_dropShadow_10_3" result="shape"/>
</filter>
</defs>
</svg>
