<svg fill="none" xmlns="http://www.w3.org/2000/svg" classname="w-28 sm:w-32" viewBox="3.06 19.35 128.6 100.34">
         <path d="M4.11859 46.1598C2.12493 43.0346 3.04223 38.885 6.16742 36.8913V36.8913C37.4193 16.9548 78.9158 26.1277 98.8524 57.3796L100.863 60.5308C102.757 63.5001 101.885 67.4427 98.916 69.337L49.6346 100.775C45.4441 103.448 39.88 102.218 37.2067 98.0278L4.11859 46.1598Z" fill="#C67C38"></path>
         <path d="M44.5008 66.2395C55.1219 31.3133 92.0453 11.6101 126.972 22.2312V22.2312C130.464 23.2933 132.434 26.9857 131.372 30.4783L106.182 113.314C104.736 118.069 99.7084 120.752 94.9528 119.306L42.0728 103.225C37.6143 101.869 35.0991 97.1558 36.4549 92.6973L44.5008 66.2395Z" fill="#F09D51"></path>
         <path d="M166.32 53.72L172.752 46.52L181.104 54.008L174.672 61.208L166.32 53.72ZM174.096 118.424V118.52C160.08 118.52 152.88 109.784 152.88 97.688C152.88 90.392 155.76 80.216 159.408 74.84H161.04C157.776 79.544 156.336 86.648 156.336 89.72C156.336 98.264 162.384 103.736 176.592 103.736C185.808 103.736 197.904 98.936 197.904 93.944C197.904 87.8 189.936 76.568 186.288 71.192L191.76 61.112H193.104C198.096 69.848 200.592 79.448 200.592 88.184C200.592 104.792 191.76 118.424 174.096 118.424ZM216.998 27.128C220.358 27.128 223.526 26.36 226.022 25.208V26.648C222.95 30.872 219.974 32.696 215.366 32.696C211.814 32.696 209.606 32.504 205.574 29.336L202.502 32.888L202.118 32.6L207.494 24.632C209.99 26.168 213.446 27.128 216.998 27.128ZM210.374 95.096H209.606V47.384L215.558 38.36H216.614V76.184C216.614 82.232 213.446 89.24 210.374 95.096ZM257.8 80.6V95.096C256.648 95.096 251.272 95.096 247.144 92.024C245.992 105.56 237.448 117.368 229.864 117.368C223.72 117.368 214.888 111.032 212.392 109.208V107.96C213.928 108.152 215.464 108.248 217 108.248C232.36 108.248 244.648 100.472 244.648 91.736C244.648 86.264 239.464 81.752 235.624 76.952L241 66.2H242.056C242.92 68.024 243.688 69.752 244.36 71.192C247.72 78.008 250.216 80.6 257.8 80.6ZM277.303 42.776L270.007 36.344L264.727 42.2L257.143 35.384L262.999 28.856L270.199 35.384L275.575 29.432L283.159 36.248L277.303 42.776ZM284.983 71.384C285.175 85.016 280.087 95 266.263 95H257.623L252.727 92.408V83.288L257.623 80.6H269.335C279.031 80.6 286.999 76.856 282.103 67.256C280.183 74.264 275.575 78.488 269.911 78.488C260.215 78.488 258.391 70.424 258.391 64.664C258.391 56.984 264.055 46.52 271.543 46.52C281.431 46.52 284.983 58.136 284.983 71.384ZM269.527 66.872C273.559 66.872 277.303 65.912 280.279 63.512C276.439 58.616 272.215 57.752 269.143 57.752C264.631 57.752 260.983 60.056 260.983 63.032C260.983 66.104 266.071 66.872 269.527 66.872Z" classname="fill-black dark:fill-white"></path>
</svg>