<svg width="104" height="41" viewBox="0 0 104 41" fill="none" xmlns="http://www.w3.org/2000/svg">
<path d="M68.1112 25.1975C69.0348 24.0686 70.0686 23.0348 71.1975 22.1112V22.1112C73.7015 20.0624 76.6277 18.5931 79.7664 17.8084L83 17L88.185 16.3087C89.722 16.1037 91.2789 16.0974 92.8174 16.2897V16.2897C96.5153 16.7519 99.98 18.3455 102.737 20.8523L104 22H98.5L96.2164 22.2076C94.1056 22.3995 92.0763 23.1158 90.3128 24.2915L90.0743 24.4505C89.0324 25.1451 88.1161 26.0118 87.3648 27.0137V27.0137C86.1453 28.6397 85.398 30.5706 85.2053 32.5939L84.5 40H56L68.1112 25.1975Z" fill="#CBCBCB"/>
<path d="M64.2105 23.2106C65.0681 22.0314 66.0403 20.9402 67.1131 19.9527V19.9527C69.6683 17.6008 72.7424 15.885 76.0855 14.9447L79 14.125L84.1118 13.3582C85.6956 13.1207 87.3054 13.1133 88.8913 13.3363V13.3363C92.5278 13.8477 95.8924 15.549 98.4597 18.1747L100 19.75H94.5L92.4606 19.9586C90.1963 20.1901 88.0379 21.034 86.2171 22.3997V22.3997C85.0806 23.252 84.094 24.2965 83.306 25.4785V25.4785C82.1247 27.2505 81.4058 29.3003 81.2261 31.4224L80.5 40H52L64.2105 23.2106Z" fill="#EAEAEA"/>
<path d="M57.2972 21.2127C58.0972 19.9905 59.0143 18.8491 60.0355 17.8046V17.8046C62.6378 15.1431 65.8597 13.1688 69.4126 12.0586L72 11.25L77.0352 10.4108C78.6678 10.1387 80.3335 10.1302 81.9689 10.3858V10.3858C85.543 10.9442 88.8086 12.737 91.1984 15.4527L93 17.5H87.5L85.7164 17.7027C83.2919 17.9782 81.0011 18.9574 79.1266 20.5195V20.5195C78.0499 21.4168 77.1317 22.4888 76.4106 23.6906L76.2478 23.9621C75.0984 25.8776 74.4116 28.0348 74.2419 30.2622L73.5 40H45L57.2972 21.2127Z" fill="white"/>
<path d="M35.8888 25.1975C34.9652 24.0686 33.9314 23.0348 32.8025 22.1112V22.1112C30.2985 20.0624 27.3723 18.5931 24.2336 17.8084L21 17L15.815 16.3087C14.278 16.1037 12.7211 16.0974 11.1826 16.2897V16.2897C7.48472 16.7519 4.02 18.3455 1.26251 20.8523L0 22H5.5L7.78359 22.2076C9.89437 22.3995 11.9237 23.1158 13.6872 24.2915L13.9257 24.4505C14.9676 25.1451 15.8839 26.0118 16.6352 27.0137V27.0137C17.8547 28.6397 18.602 30.5706 18.7947 32.5939L19.5 40H48L35.8888 25.1975Z" fill="#CBCBCB"/>
<path d="M39.7895 23.2106C38.9319 22.0314 37.9597 20.9402 36.8869 19.9527V19.9527C34.3317 17.6008 31.2576 15.885 27.9145 14.9447L25 14.125L19.8882 13.3582C18.3044 13.1207 16.6946 13.1133 15.1087 13.3363V13.3363C11.4722 13.8477 8.1076 15.549 5.54031 18.1747L4 19.75H9.5L11.5394 19.9586C13.8037 20.1901 15.9621 21.034 17.7829 22.3997V22.3997C18.9194 23.252 19.906 24.2965 20.694 25.4785V25.4785C21.8753 27.2505 22.5942 29.3003 22.7739 31.4224L23.5 40H52L39.7895 23.2106Z" fill="#EAEAEA"/>
<path d="M46.7028 21.2127C45.9028 19.9905 44.9857 18.8491 43.9645 17.8046V17.8046C41.3622 15.1431 38.1403 13.1688 34.5874 12.0586L32 11.25L26.9648 10.4108C25.3322 10.1387 23.6665 10.1302 22.0311 10.3858V10.3858C18.457 10.9442 15.1914 12.737 12.8016 15.4527L11 17.5H16.5L18.2836 17.7027C20.7081 17.9782 22.9989 18.9574 24.8734 20.5195V20.5195C25.9501 21.4168 26.8683 22.4888 27.5894 23.6906L27.7522 23.9621C28.9016 25.8776 29.5884 28.0348 29.7581 30.2622L30.5 40H59L46.7028 21.2127Z" fill="white"/>
<path d="M19.3056 38H84.6723L84.4999 40L84.7432 40.8732C84.761 40.9369 84.713 41 84.6469 41H19.3331C19.266 41 19.218 40.9353 19.2373 40.8711L19.5 40L19.3056 38Z" fill="#A44D1D"/>
<g filter="url(#filter0_d_52_671)">
<path d="M39.592 3.672L39.688 3.832L39.08 5.848C37.832 6.008 35.752 6.36 34.12 6.712V6.552C34.376 6.136 34.824 5.56 35.656 5.144C33.832 3.864 34.888 0.119999 37.448 0.119999C38.952 0.119999 38.984 1.688 38.92 2.584L38.824 2.648C38.344 2.328 37.672 2.136 37.032 2.136C36.232 2.136 35.368 2.488 35.112 2.776C35.208 3.64 37.256 4.056 39.592 3.672ZM35.72 27.032V11.288L37.704 8.28H38.056V20.728C38.056 22.744 37 25.08 35.976 27.032H35.72ZM50.527 22.2V27.032C50.143 27.032 48.351 27.032 46.975 26.008C46.591 30.52 43.743 34.456 41.215 34.456C39.167 34.456 36.223 32.344 35.391 31.736V31.32C35.903 31.384 36.415 31.416 36.927 31.416C42.047 31.416 46.143 28.824 46.143 25.912C46.143 24.088 44.415 22.584 43.135 20.984L44.927 17.4H45.279C45.567 18.008 45.823 18.584 46.047 19.064C47.167 21.336 47.999 22.2 50.527 22.2ZM60.26 10.584L57.828 8.44L56.068 10.392L53.54 8.12L55.492 5.944L57.892 8.12L59.684 6.136L62.212 8.408L60.26 10.584ZM60.132 21.944C61.156 22.104 62.34 22.2 63.908 22.2V27C61.092 27 58.532 26.296 56.58 25.176C54.98 26.136 53.444 27 50.5 27L48.9 26.136V23.192L50.5 22.328V22.2C51.716 22.168 52.868 22.104 53.956 21.88C53.732 21.336 53.604 20.6 53.604 19.928C53.604 16.568 56.228 12.6 58.34 12.6C60.356 12.6 61.38 14.936 61.38 17.752C61.38 19.224 60.804 20.792 60.132 21.944ZM54.34 18.584C54.34 19.48 56.356 20.792 57.892 21.144C59.716 20.28 60.708 19.608 60.708 19.064C60.708 17.592 59.428 16.44 57.892 16.44C56.292 16.44 54.34 17.624 54.34 18.584ZM63.9055 27L62.2735 26.136V23.096L63.9055 22.232V22.2C66.4655 22.168 68.6415 21.784 68.6415 21.208C68.6415 20.44 66.5295 18.648 65.6655 17.816L67.4255 13.912H67.9375C68.9935 15.992 69.6015 18.488 69.6015 20.76C69.6015 24.12 68.0655 27 63.9375 27H63.9055ZM67.2975 28.984L69.8255 31.256L67.8735 33.432L65.4735 31.256L63.6815 33.24L61.1535 30.968L63.1055 28.792L65.5375 30.968L67.2975 28.984Z" fill="#EEEEEE"/>
</g>
<defs>
<filter id="filter0_d_52_671" x="32.832" y="0.119995" width="37.9934" height="36.336" filterUnits="userSpaceOnUse" color-interpolation-filters="sRGB">
<feFlood flood-opacity="0" result="BackgroundImageFix"/>
<feColorMatrix in="SourceAlpha" type="matrix" values="0 0 0 0 0 0 0 0 0 0 0 0 0 0 0 0 0 0 127 0" result="hardAlpha"/>
<feOffset dy="1"/>
<feGaussianBlur stdDeviation="0.5"/>
<feComposite in2="hardAlpha" operator="out"/>
<feColorMatrix type="matrix" values="0 0 0 0 0 0 0 0 0 0 0 0 0 0 0 0 0 0 0.76 0"/>
<feBlend mode="normal" in2="BackgroundImageFix" result="effect1_dropShadow_52_671"/>
<feBlend mode="normal" in="SourceGraphic" in2="effect1_dropShadow_52_671" result="shape"/>
</filter>
</defs>
</svg>
